<svg width="12.000000" height="11.000000" viewBox="0 0 12 11" fill="none" xmlns="http://www.w3.org/2000/svg" xmlns:xlink="http://www.w3.org/1999/xlink">
	<desc>
			Created with Pixso.
	</desc>
	<defs/>
	<path id="矢量 3" d="M0 9.99C0 10.55 0.44 11 1 11L10.99 11C11.55 11 12 10.55 12 9.99L12 2.99C12 2.44 11.55 2 11 2L10.5 2C10.77 2 11 1.77 11 1.5C11 0.94 10.55 0.5 10 0.5L6.5 0.5C6.22 0.5 6 0.72 6 1C6 1.27 6.22 1.5 6.5 1.5L10 1.5C10 1.77 10.22 2 10.5 2L5.64 2L5.49 1.4C5.42 0.89 5.28 0 4.26 0L1 0C0.44 0 0 0.44 0 1L0 9.99ZM1 9.99L1 1L4.26 1C4.34 1 4.36 1.01 4.36 1.01C4.39 1.03 4.44 1.14 4.5 1.56L4.85 3L11 3L10.99 10L1 9.99ZM2 4.5C2 4.77 2.22 5 2.5 5L9.5 5C9.77 5 10 4.77 10 4.5C10 4.22 9.77 4 9.5 4L2.5 4C2.22 4 2 4.22 2 4.5Z" fill="#012A2D" fill-opacity="1.000000" fill-rule="evenodd"/>
</svg>
