<svg width="13.500000" height="13.254578" viewBox="0 0 13.5 13.2546" fill="none" xmlns="http://www.w3.org/2000/svg" xmlns:xlink="http://www.w3.org/1999/xlink">
	<desc>
			Created with Pixso.
	</desc>
	<defs/>
	<path id="path" d="M6.75 1.25C7.25 1.25 7.5 1.5 7.5 2L7.5 9.5C7.5 10 7.25 10.25 6.75 10.25C6.25 10.25 6 10 6 9.5L6 2C6 1.5 6.25 1.25 6.75 1.25Z" fill="#FFFFFF" fill-opacity="1.000000" fill-rule="nonzero"/>
	<path id="path" d="M12 4.25L10.5 4.25L10.5 5.75L12 5.75L12 11.75L1.5 11.75L1.5 5.75L3 5.75L3 4.25L1.5 4.25C1.45 4.25 1.4 4.25 1.35 4.26C1.3 4.26 1.25 4.27 1.2 4.28C1.15 4.29 1.11 4.3 1.06 4.31C1.01 4.33 0.97 4.34 0.92 4.36C0.88 4.38 0.83 4.4 0.79 4.43C0.74 4.45 0.7 4.48 0.66 4.5C0.62 4.53 0.58 4.56 0.54 4.59C0.51 4.62 0.47 4.65 0.43 4.69C0.4 4.72 0.37 4.76 0.34 4.8C0.3 4.84 0.28 4.88 0.25 4.92C0.22 4.96 0.2 5 0.17 5.04C0.15 5.09 0.13 5.13 0.11 5.18C0.09 5.22 0.07 5.27 0.06 5.31C0.05 5.36 0.03 5.41 0.02 5.46C0.01 5.51 0.01 5.55 0 5.6C0 5.65 0 5.7 0 5.75L0 11.75C0 11.8 0 11.85 0 11.9C0.01 11.95 0.01 11.99 0.02 12.04C0.03 12.09 0.05 12.14 0.06 12.19C0.07 12.23 0.09 12.28 0.11 12.32C0.13 12.37 0.15 12.41 0.17 12.46C0.2 12.5 0.22 12.54 0.25 12.58C0.28 12.62 0.3 12.66 0.34 12.7C0.37 12.74 0.4 12.78 0.43 12.81C0.47 12.85 0.51 12.88 0.54 12.91C0.58 12.94 0.62 12.97 0.66 13C0.7 13.02 0.74 13.05 0.79 13.07C0.83 13.1 0.88 13.12 0.92 13.14C0.97 13.15 1.01 13.17 1.06 13.19C1.11 13.2 1.15 13.21 1.2 13.22C1.25 13.23 1.3 13.24 1.35 13.24C1.4 13.25 1.45 13.25 1.5 13.25L12 13.25C12.04 13.25 12.09 13.25 12.14 13.24C12.19 13.24 12.24 13.23 12.29 13.22C12.34 13.21 12.38 13.2 12.43 13.19C12.48 13.17 12.52 13.15 12.57 13.14C12.61 13.12 12.66 13.1 12.7 13.07C12.75 13.05 12.79 13.02 12.83 13C12.87 12.97 12.91 12.94 12.95 12.91C12.98 12.88 13.02 12.85 13.06 12.81C13.09 12.78 13.12 12.74 13.15 12.7C13.19 12.66 13.21 12.62 13.24 12.58C13.27 12.54 13.29 12.5 13.32 12.46C13.34 12.41 13.36 12.37 13.38 12.32C13.4 12.28 13.42 12.23 13.43 12.19C13.44 12.14 13.46 12.09 13.47 12.04C13.48 11.99 13.48 11.95 13.49 11.9C13.49 11.85 13.5 11.8 13.5 11.75L13.5 5.75C13.5 5.7 13.49 5.65 13.49 5.6C13.48 5.55 13.48 5.51 13.47 5.46C13.46 5.41 13.44 5.36 13.43 5.31C13.42 5.27 13.4 5.22 13.38 5.18C13.36 5.13 13.34 5.09 13.32 5.04C13.29 5 13.27 4.96 13.24 4.92C13.21 4.88 13.19 4.84 13.15 4.8C13.12 4.76 13.09 4.72 13.06 4.69C13.02 4.65 12.98 4.62 12.95 4.59C12.91 4.56 12.87 4.53 12.83 4.5C12.79 4.48 12.75 4.45 12.7 4.43C12.66 4.4 12.61 4.38 12.57 4.36C12.52 4.34 12.48 4.33 12.43 4.31C12.38 4.3 12.34 4.29 12.29 4.28C12.24 4.27 12.19 4.26 12.14 4.26C12.09 4.25 12.04 4.25 12 4.25ZM6.33 0.17L4.02 2.48C3.97 2.52 3.94 2.57 3.91 2.62C3.88 2.67 3.87 2.73 3.85 2.79C3.84 2.84 3.84 2.9 3.85 2.96C3.85 3.02 3.87 3.08 3.89 3.13C3.91 3.19 3.94 3.24 3.98 3.28C4.02 3.33 4.06 3.37 4.11 3.4C4.16 3.43 4.21 3.46 4.27 3.47C4.33 3.49 4.38 3.5 4.44 3.5L9.05 3.5C9.11 3.5 9.16 3.49 9.22 3.47C9.28 3.46 9.33 3.43 9.38 3.4C9.43 3.37 9.47 3.33 9.51 3.28C9.55 3.24 9.58 3.19 9.6 3.13C9.62 3.08 9.64 3.02 9.64 2.96C9.65 2.9 9.65 2.84 9.64 2.79C9.62 2.73 9.61 2.67 9.58 2.62C9.55 2.57 9.52 2.52 9.47 2.48L7.16 0.17C7.14 0.14 7.11 0.12 7.08 0.1C7.04 0.07 7.01 0.06 6.97 0.04C6.94 0.03 6.9 0.01 6.86 0.01C6.82 0 6.78 0 6.75 0C6.71 0 6.67 0 6.63 0.01C6.59 0.01 6.55 0.03 6.52 0.04C6.48 0.06 6.45 0.07 6.41 0.1C6.38 0.12 6.35 0.14 6.33 0.17Z" fill="#FFFFFF" fill-opacity="1.000000" fill-rule="nonzero"/>
</svg>
