<svg width="16.000000" height="16.000000" viewBox="0 0 16 16" fill="none" xmlns="http://www.w3.org/2000/svg" xmlns:xlink="http://www.w3.org/1999/xlink">
	<desc>
			Created with Pixso.
	</desc>
	<defs>
		<clipPath id="clip119_1242">
			<rect id="知识库管理" width="16.000000" height="16.000000" fill="white" fill-opacity="0"/>
		</clipPath>
	</defs>
	<g clip-path="url(#clip119_1242)">
		<path id="path" d="M14.41 1L1.58 1C1.54 1 1.5 1 1.46 1.01C1.43 1.01 1.39 1.02 1.36 1.04C1.32 1.05 1.29 1.07 1.25 1.09C1.22 1.11 1.19 1.14 1.17 1.17C1.14 1.19 1.11 1.22 1.09 1.25C1.07 1.29 1.05 1.32 1.04 1.36C1.02 1.39 1.01 1.43 1.01 1.46C1 1.5 1 1.54 1 1.58L1 14.41C1 14.45 1 14.49 1.01 14.53C1.01 14.56 1.02 14.6 1.04 14.63C1.05 14.67 1.07 14.7 1.09 14.74C1.11 14.77 1.14 14.8 1.17 14.82C1.19 14.85 1.22 14.88 1.25 14.9C1.29 14.92 1.32 14.94 1.36 14.95C1.39 14.97 1.43 14.98 1.46 14.98C1.5 14.99 1.54 15 1.58 15L14.41 15C14.45 15 14.49 14.99 14.53 14.98C14.56 14.98 14.6 14.97 14.63 14.95C14.67 14.94 14.7 14.92 14.74 14.9C14.77 14.88 14.8 14.85 14.82 14.82C14.85 14.8 14.88 14.77 14.9 14.74C14.92 14.7 14.94 14.67 14.95 14.63C14.97 14.6 14.98 14.56 14.98 14.53C14.99 14.49 15 14.45 15 14.41L15 1.58C15 1.54 14.99 1.5 14.98 1.46C14.98 1.43 14.97 1.39 14.95 1.36C14.94 1.32 14.92 1.29 14.9 1.25C14.88 1.22 14.85 1.19 14.82 1.17C14.8 1.14 14.77 1.11 14.74 1.09C14.7 1.07 14.67 1.05 14.63 1.04C14.6 1.02 14.56 1.01 14.53 1.01C14.49 1 14.45 1 14.41 1ZM11.03 2.16L11.03 7.87L10.18 7.31C10.14 7.27 10.09 7.25 10.03 7.23C9.97 7.22 9.92 7.21 9.86 7.21C9.8 7.21 9.75 7.22 9.69 7.23C9.63 7.25 9.58 7.27 9.53 7.31L8.7 7.87L8.7 2.16L11.03 2.16ZM2.16 2.16L4.2 2.16L4.2 13.83L2.16 13.83L2.16 2.16ZM13.83 13.83L5.37 13.83L5.37 2.16L7.53 2.16L7.53 8.97C7.53 9.02 7.54 9.07 7.55 9.12C7.57 9.17 7.59 9.22 7.61 9.27C7.64 9.31 7.67 9.35 7.71 9.39C7.75 9.43 7.79 9.46 7.84 9.48C7.89 9.51 7.93 9.52 7.99 9.54C8.04 9.55 8.09 9.55 8.14 9.55C8.2 9.55 8.25 9.54 8.3 9.52C8.35 9.5 8.39 9.48 8.44 9.45L9.86 8.5L11.29 9.45C11.33 9.48 11.38 9.5 11.43 9.52C11.48 9.54 11.53 9.55 11.58 9.55C11.64 9.55 11.69 9.55 11.74 9.54C11.79 9.53 11.84 9.51 11.89 9.48C11.94 9.46 11.98 9.43 12.02 9.39C12.05 9.36 12.09 9.31 12.11 9.27C12.14 9.22 12.16 9.18 12.18 9.12C12.19 9.07 12.2 9.02 12.2 8.97L12.2 2.16L13.83 2.16L13.83 13.83Z" fill="#1D5276" fill-opacity="1.000000" fill-rule="nonzero"/>
	</g>
</svg>
